<svg version="1.0" xmlns="http://www.w3.org/2000/svg"
     width="100%"
     height="10%"
     viewBox="0 0 350 35">
    <g transform="translate(0.000000,35.000000) scale(0.100000,-0.100000)" fill="#000000" stroke="none">
        <path d="M69 307 c-66 -44 -70 -139 -8 -191 39 -33 99 -35 148 -5 31 19 33 22 17 37 -15 15 -18 15 -46 -2 -78 -46 -155 37 -99 108 23 30 81 36 108 12 13 -12 19 -12 34 -1 16 12 16 14 -13 39 -40 33 -94 35 -141 3z"/>
        <path d="M1763 311 c-35 -22 -63 -67 -63 -101 0 -36 28 -85 59 -103 57 -33 160 -11 161 34 0 16 -33 17 -55 3 -49 -32 -115 7 -115 68 0 56 63 85 125 56 20 -9 28 -9 37 0 20 20 -23 53 -73 59 -32 3 -52 -1 -76 -16z"/>
        <path d="M667 303 c-4 -3 -7 -41 -7 -82 0 -86 12 -113 60 -129 27 -10 30 -9 30 10 0 11 -11 29 -25 40 -16 13 -25 29 -25 49 0 24 4 29 25 29 18 0 25 5 25 20 0 15 -7 20 -25 20 -20 0 -25 5 -25 25 0 24 -18 34 -33 18z"/>
        <path d="M3213 303 c-16 -6 -17 -93 -2 -146 7 -26 21 -44 42 -57 41 -26 47 -25 47 5 0 14 -4 25 -9 25 -19 0 -41 32 -41 61 0 24 4 29 25 29 18 0 25 5 25 20 0 15 -7 20 -25 20 -20 0 -25 5 -25 25 0 24 -11 29 -37 18z"/>
        <path d="M279 231 c-56 -57 -21 -141 59 -141 79 0 118 95 58 146 -38 33 -80 31 -117 -5z m97 -47 c7 -28 -10 -54 -35 -54 -24 0 -41 20 -41 47 0 45 65 51 76 7z"/>
        <path d="M460 176 c0 -79 2 -86 19 -86 17 0 20 8 23 51 3 55 21 78 52 66 12 -5 16 -20 16 -62 0 -50 2 -55 23 -55 21 0 22 3 19 64 -4 79 -18 93 -95 101 l-57 6 0 -85z"/>
        <path d="M797 240 c-49 -39 -42 -115 12 -142 16 -7 50 -12 79 -10 l52 4 0 83 0 83 -59 1 c-44 0 -66 -5 -84 -19z m91 -67 c-7 -56 -69 -55 -76 1 -3 20 2 28 20 35 33 13 60 -4 56 -36z"/>
        <path d="M987 253 c-4 -3 -7 -42 -7 -85 0 -71 2 -78 20 -78 18 0 20 7 20 85 0 64 -3 85 -13 85 -8 0 -17 -3 -20 -7z"/>
        <path d="M1065 175 c0 -81 1 -85 22 -85 20 0 22 6 25 57 2 48 6 58 22 61 28 6 46 -25 46 -75 0 -36 3 -43 20 -43 18 0 20 7 20 58 0 58 -22 100 -53 103 -7 1 -32 3 -57 5 l-45 4 0 -85z"/>
        <path d="M1298 237 c-27 -11 -48 -24 -48 -27 0 -3 24 -16 53 -28 l53 -22 52 21 c29 12 52 25 52 29 0 8 -93 51 -107 49 -4 -1 -29 -10 -55 -22z"/>
        <path d="M1529 231 c-25 -26 -29 -37 -29 -85 0 -49 2 -56 20 -56 16 0 20 7 20 34 0 48 15 83 39 91 12 3 21 15 21 26 0 29 -37 24 -71 -10z"/>
        <path d="M1985 248 c-77 -44 -49 -158 38 -158 52 0 87 32 87 81 0 70 -66 111 -125 77z m83 -75 c7 -46 -69 -56 -84 -11 -5 16 -1 27 16 40 20 16 25 17 44 5 12 -8 22 -23 24 -34z"/>
        <path d="M2150 175 c0 -78 2 -85 20 -85 16 0 19 8 22 58 3 53 5 57 28 57 23 0 25 -4 28 -57 3 -54 5 -58 27 -58 24 0 25 3 25 55 0 42 4 57 16 62 26 10 46 -26 42 -74 -3 -39 -1 -43 19 -43 21 0 23 4 23 59 0 71 -21 104 -66 103 -59 -3 -80 -2 -131 3 l-53 5 0 -85z"/>
        <path d="M2440 175 c0 -78 2 -85 20 -85 17 0 20 7 20 48 0 55 10 75 36 70 16 -3 20 -14 22 -61 3 -53 5 -57 27 -57 22 0 24 4 27 57 2 47 6 58 22 61 26 5 36 -15 36 -70 0 -41 3 -48 20 -48 18 0 20 7 20 60 0 52 -4 65 -26 87 -20 20 -31 24 -52 18 -31 -8 -48 -8 -119 0 l-53 6 0 -86z"/>
        <path d="M2722 196 c5 -80 24 -106 79 -106 55 0 79 34 79 111 0 56 -1 59 -25 59 -23 0 -24 -4 -27 -62 -3 -60 -4 -63 -28 -63 -24 0 -25 3 -28 63 -3 59 -4 62 -29 62 -25 0 -25 -1 -21 -64z"/>
        <path d="M2920 175 c0 -78 2 -85 19 -85 17 0 20 8 23 51 6 95 68 93 68 -2 0 -42 3 -49 20 -49 18 0 20 7 20 60 0 61 -20 99 -52 101 -7 0 -32 2 -55 5 l-43 4 0 -85z"/>
        <path d="M3123 253 c-9 -3 -13 -30 -13 -84 0 -78 0 -79 25 -79 25 0 25 1 25 85 0 85 -3 92 -37 78z"/>
        <path d="M3310 255 c0 -3 14 -37 31 -75 29 -64 31 -74 20 -109 -14 -49 -15 -48 10 -46 18 1 30 22 65 110 24 60 44 113 44 118 0 5 -10 7 -22 5 -17 -2 -27 -15 -38 -45 -8 -24 -18 -43 -21 -43 -4 0 -15 20 -25 45 -13 36 -22 45 -40 45 -13 0 -24 -2 -24 -5z"/>
        <path d="M1255 180 c-6 -10 93 -57 110 -52 51 17 104 46 94 52 -6 4 -32 -1 -56 -12 -24 -11 -50 -17 -56 -15 -7 3 -29 12 -49 21 -22 9 -39 12 -43 6z"/>
        <path d="M1250 142 c0 -5 24 -18 54 -31 l54 -22 51 22 c28 12 51 25 51 30 0 13 -13 11 -60 -10 -42 -19 -43 -19 -84 0 -44 20 -66 24 -66 11z"/>
    </g>
</svg>