<?xml version="1.0" standalone="no"?>
<!DOCTYPE svg PUBLIC "-//W3C//DTD SVG 1.1//EN" "http://www.w3.org/Graphics/SVG/1.1/DTD/svg11.dtd">
<svg viewBox="0 0 1024 1024" version="1.1" xmlns="http://www.w3.org/2000/svg" width="128" height="128">
    <path d="M65.194667 336.896h893.610666c24.576 0 44.714667 20.138667 44.714667 44.714667l-32.426667 357.717333c33.792-68.266667 52.906667-145.408 52.906667-226.986667C1024 229.376 794.624 0 512 0S0 229.376 0 512c0 81.578667 19.114667 158.72 52.906667 226.986667L20.48 381.610667c0-24.917333 20.138667-44.714667 44.714667-44.714667zM512 1024c117.76 0 225.962667-39.594667 312.32-106.496h-624.64c86.357333 66.901333 194.56 106.496 312.32 106.496z" fill="#D7E7FF"/>
    <path d="M958.805333 336.896H65.194667c-24.576 0-44.714667 20.138667-44.714667 44.714667l32.426667 357.717333 12.288 133.802667c0 13.312 6.144 25.258667 15.36 33.450666 7.850667 6.826667 18.090667 11.264 29.354666 11.264h714.410667c61.44-47.445333 111.957333-108.544 146.773333-178.517333l32.426667-357.717333c0-24.917333-20.138667-44.714667-44.714667-44.714667zM923.989333 280.234667c0-22.869333-17.408-41.642667-39.253333-41.642667H531.456c0.682667 0-79.872-55.296-84.992-55.296H178.176c-21.845333 0-39.253333 18.773333-39.253333 41.642667v89.429333h785.066666v-34.133333z" fill="#528CFE"/>
    <path d="M501.077333 559.445333c0 34.816 28.330667 62.805333 62.805334 62.805334 34.816 0 62.805333-28.330667 62.805333-62.805334 0-34.816-28.330667-62.805333-62.805333-62.805333-34.474667 0-62.805333 27.989333-62.805334 62.805333z m0 0" fill="#FFFFFF"/>
    <path d="M494.933333 559.445333c0-6.144 0.682667-12.288 2.389334-17.749333-9.898667-11.605333-24.917333-19.114667-41.301334-19.114667-30.037333 0-54.272 24.234667-54.272 54.272s24.234667 54.272 54.272 54.272c22.869333 0 42.325333-13.994667 50.176-33.792-7.168-10.922667-11.264-23.893333-11.264-37.888z" fill="#FFFFFF"/>
    <path d="M493.226667 619.52c-4.437333-2.048-9.216-3.754667-14.336-5.12-7.168-1.706667-36.864-2.048-43.690667-0.341333-51.2 12.629333-87.04 56.661333-96.938667 142.336h80.554667c11.946667-67.584 38.229333-111.957333 74.410667-136.874667z" fill="#FFFFFF"/>
    <path d="M591.530667 607.914667c-8.533333-2.048-42.666667-2.389333-50.517334-0.341334-59.392 14.677333-100.693333 65.536-112.298666 164.864H696.32c-12.288-84.309333-46.08-149.504-104.789333-164.522666z m-29.013334 108.885333l-19.797333-18.090667 5.802667-51.2h6.485333v-6.485333h-6.485333v-18.432h27.306666v18.432h-7.168v6.485333h7.168l6.826667 51.2-20.138667 18.090667z m0 0" fill="#FFFFFF"/>
</svg>