<?xml version="1.0" standalone="no"?>
<!DOCTYPE svg PUBLIC "-//W3C//DTD SVG 1.1//EN" "http://www.w3.org/Graphics/SVG/1.1/DTD/svg11.dtd">
<svg viewBox="0 0 1045 1024" version="1.1" xmlns="http://www.w3.org/2000/svg" width="130.625" height="128">
    <path d="M687.474641 78.922611V39.135179H251.117397v39.787432h436.357244zM40.439685 870.105475V232.202061H13.697313v-32.612649H39.135179V79.574864h147.409173V39.135179H40.439685a40.439685 40.439685 0 0 0-40.439685 40.439685v789.226105a40.439685 40.439685 0 0 0 40.439685 40.439685h600.724994a171.542534 171.542534 0 0 1-16.306324-39.135179zM890.325318 78.270358v121.319054h26.090119v32.612649h-26.090119v372.436451a164.367751 164.367751 0 0 1 39.787431 16.306325v-541.369973a40.439685 40.439685 0 0 0-39.787431-40.439685h-137.625379v39.135179z" fill="#D9EDFE"/>
    <path d="M39.135179 232.202061v637.903414h587.027682a211.329965 211.329965 0 0 1-9.783795-61.31178 213.938977 213.938977 0 0 1 213.938977-214.59123 195.675894 195.675894 0 0 1 61.964033 10.436047V232.202061zM720.739543 521.802384H210.02546v-32.612649h510.714083z m0-130.450596H210.02546v-32.612649h510.714083zM890.325318 78.270358h-137.625379V130.450596h-65.225298v-51.527985H251.117397V130.450596h-64.573045v-51.527985L39.135179 79.574864v120.014548h851.842392l-0.652253-121.319054z" fill="#87CEFA"/>
    <path d="M930.765002 620.944837a164.367751 164.367751 0 0 0-39.787431-16.306325 195.675894 195.675894 0 0 0-61.964034-10.436047 213.938977 213.938977 0 0 0-213.938977 214.59123 211.329965 211.329965 0 0 0 9.783795 61.31178 171.542534 171.542534 0 0 0 16.306324 39.135179 213.938977 213.938977 0 1 0 289.600323-288.295817z m-101.751465 362.652657a174.151546 174.151546 0 0 1-142.843402-74.35684 185.892099 185.892099 0 0 1-20.219843-39.135179 174.151546 174.151546 0 0 1 163.063245-236.767832 174.803799 174.803799 0 0 1 61.964034 11.740554 173.499293 173.499293 0 0 1 113.492018 163.715498 175.456052 175.456052 0 0 1-175.456052 174.803799z" fill="#00BFFF"/>
    <path d="M832.274802 793.791877a20.872095 20.872095 0 1 0 0 41.091937 20.872095 20.872095 0 0 0 0-41.091937z" fill="#E1F0FF"/>
    <path d="M930.765002 665.950292a178.065064 178.065064 0 0 0-39.787431-20.872095A174.151546 174.151546 0 0 0 652.25298 808.793695a176.760558 176.760558 0 0 0 11.740554 61.31178 185.892099 185.892099 0 0 0 20.219842 39.135179 174.803799 174.803799 0 0 0 320.256213-100.446959 176.108305 176.108305 0 0 0-73.704587-142.843403z m11.088301 160.454234h-75.009093a37.17842 37.17842 0 0 1-71.747828-11.740554 35.873914 35.873914 0 0 1 24.785614-34.569408V704.433218a12.392807 12.392807 0 1 1 24.13336 0V782.703576a36.526167 36.526167 0 0 1 22.828854 22.176601h75.009093a11.740554 11.740554 0 0 1 12.392807 12.392807 11.740554 11.740554 0 0 1-12.392807 9.131542z" fill="#E1F0FF"/>
    <path d="M941.853303 802.271165h-11.088301v24.133361h11.088301a11.740554 11.740554 0 0 0 12.392807-11.740554 11.740554 11.740554 0 0 0-12.392807-12.392807zM891.303697 802.466841h39.135179v24.13336h-39.135179z" fill="#FF5A07"/>
    <path d="M866.84421 802.271165a36.526167 36.526167 0 0 0-22.828854-22.176601V704.433218a12.392807 12.392807 0 1 0-24.13336 0V782.703576a35.873914 35.873914 0 0 0-24.785614 34.569408 37.17842 37.17842 0 0 0 71.747828 11.740553h24.785614v-26.742372z m-34.569408 32.612649a20.872095 20.872095 0 1 1 20.219843-20.219842 20.219842 20.219842 0 0 1-20.219843 20.219842z" fill="#FF5A07"/>
    <path d="M186.544352 130.450596h64.573045V0h-64.573045v130.450596zM687.474641 130.450596h65.225298V0h-65.225298v130.450596zM13.697313 199.589412h26.090119v32.612649h-26.090119zM890.977571 199.589412h26.742372v32.612649h-26.742372z" fill="#16a5f0"/>
    <path d="M890.977571 199.589412H39.135179v32.612649h851.842392v-32.612649zM210.02546 361.348151h511.366336v32.612649H210.02546zM210.02546 490.494241h511.366336v32.612649H210.02546z" fill="#20A0FF"/>
</svg>