<?xml version="1.0" standalone="no"?>
<!DOCTYPE svg PUBLIC "-//W3C//DTD SVG 1.1//EN" "http://www.w3.org/Graphics/SVG/1.1/DTD/svg11.dtd">
<svg viewBox="0 0 1024 1024" version="1.1" xmlns="http://www.w3.org/2000/svg" width="128" height="128">
    <path d="M662.696368 812.005109H362.103613v150.296378H91.410137v60.098552h842.079704v-60.098552H662.696368V812.005109zM939.389699 0.024679h-853.979418C40.111373-1.075294 2.412282 34.723843 1.212311 80.122749v560.486491c0.599986 46.198887 37.999084 83.597985 84.19797 84.197971h850.879493c45.398906 1.099973 83.097997-34.699164 84.197971-80.098069V84.22265c1.499964-44.998915-33.699188-82.698007-78.698104-84.197971h-2.399942z m26.99935 640.484564c0 14.899641-12.099708 26.999349-26.99935 26.999349h-853.979418c-14.899641 0.099998-27.099347-11.899713-27.199344-26.799354V84.22265c0-14.899641 12.099708-26.999349 26.999349-26.999349h851.079488c14.899641 0 26.999349 12.099708 26.999349 26.999349v556.286593h3.099926z" fill="#87CEFA"/>
    <path d="M692.795643 451.113807h-420.989854V331.616688h60.098552V150.521052H151.508688v180.395652h60.098552v180.395653h481.188403v60.098551h180.495649V391.015256H692.795643v60.098551zM542.499265 180.620327h330.792027v60.098551H542.499265v-60.098551z" fill="#D7E7FF"/>
</svg>