<svg xmlns="http://www.w3.org/2000/svg"
     width="350"
     height="80"
     viewBox="-30 0 400 80"
     >
 <g>
  <path d="M33,38L2,38L2,69L33,69L33,63L8,63L8,44L33,44ZM38,38L38,69L70,69L70,38ZM45,44L63,44L63,63L45,63ZM74,38L74,69L80,69L80,44L94,44L94,69L100,69L100,38ZM111,25L111,38L105,38L105,44L111,44L111,69L124,69L124,63L117,63L117,44L124,44L124,38L117,38L117,25ZM136,38L136,44L154,44L154,50L129,50L129,69L160,69L160,38ZM135,57L154,57L154,63L135,63ZM165,25L165,31L171,31L171,25ZM165,38L165,69L171,69L171,38ZM176,38L176,69L182,69L182,44L196,44L196,69L202,69L202,38ZM206,38L206,69L233,69L233,63L213,63L213,57L237,57L237,38ZM213,44L230,44L230,50L213,50ZM241,38L241,69L248,69L248,44L268,44L268,38" fill="#aeaeae"/>
  <path d="M274,2L274,78L327,78L327,2ZM282,35L307,35L307,22L319,22L319,70L282,70ZM293,45L293,60L307,60L307,45Z" fill="#000"/>
 </g>
</svg>