<svg version="1.1"
     xmlns="http://www.w3.org/2000/svg"
     height="180"
     width="180"
     viewBox="0 0 200 200"
>
    <g>
        <path d="M150,37 C113,-16 15,0 12,89 C16,178 119,188 124,163 C129,166 170,140 158,123 Q165,84 161,66 C171,63 165,40 150,37Z M138,36 Q93,33 78,53.7 C82,52 163,30 157.5,58 C150,54 67,58 72,66 C62,75 60,100 67,108 C78,142 128,151 152,130 C150,145 113,178 59,135 C70,152 80,161 110,165 C-40,170 25,-55 138,36Z M73,23 Q46,32 35,64 Q43,63 45,65 Q46,43 73,23Z M33,70 C35,66 56,97 33,107 C55,113 55,63 33,70Z" fill="#262362"/>
        <path d="M91,70 Q86,80 81,82.7 Q86,85 90.6,94 Q94,86 100.2,82.5 Q93,78 91,70Z M108.9,92 Q109,94 105,97 Q108,99 109,101 Q109,99 112.4,96.8 Q109,94.6 108.9,92Z M131,61 Q138,97 112.5,135.5 C172,147 156,64 151,61Z" fill="#fbb03b"/>
    </g>

</svg>
