<svg version="1.1"
     xmlns="http://www.w3.org/2000/svg"
     width="80px"
     height="80px"
     viewBox="0 0 80 80"
>
    <g>
        <path d="M23,17L13,23L23,29ZM13,24L13,36L23,30ZM23,31L13,37L23,43ZM13,38L13,50L23,44ZM13,51L23,57L23,45M24,17L24,29L34,23ZM24,30L34,36L34,24ZM35,24L35,36L46,30ZM35,23L46,29L46,17ZM47,17L47,29L57,23ZM47,30L57,36L57,24ZM47,31L47,43L57,37ZM47,44L57,50L57,38ZM47,45L47,57L57,51Z" fill="#00addd"/>
        <path d="M24,16L34,22L34,10ZM35,10L35,22L46,16ZM24,31L24,43L34,37ZM35,37L46,43L46,31ZM24,44L34,50L34,38ZM24,45L24,57L34,51ZM35,38L35,50L46,44ZM35,51L46,57L46,45ZM24,58L34,64L34,52ZM35,52L35,64L46,58Z" fill="#fff"/>
    </g>
</svg>
