<svg version="1.1"
     xmlns="http://www.w3.org/2000/svg"
     width="340px"
     height="170px"
     viewBox="-65 30 220 50"
>
    <g>
        <path fill="#54a3d9" d="M57.359,103.202c0,0,1.943-9.385,10.066-20.65c5.646-3.262,11.308-7.259,16.104-12.054
                    c4.434-21.988-2.297-45.579-2.297-45.579s-23.591-6.73-45.578-2.296c-4.797,4.798-8.792,10.46-12.054,16.104
                    C12.332,46.848,2.949,48.791,2.949,48.791s7.505,5.153,11.126,11c-1.542,4.448-2.267,7.314-2.267,7.314
                    c0.587,2.745,2.324,5.947,4.721,9.178c-1.655,1.312-3.595,2.677-5.703,3.818c-0.252,0.139-0.51,0.272-0.767,0.402
                    c1.809,5.967,9.799,13.482,15.619,15.507c0.118-0.233,0.241-0.463,0.366-0.692c1.174-2.165,2.583-4.154,3.927-5.839
                    c3.261,2.366,6.448,4.129,9.074,4.861c0,0,2.869-0.724,7.316-2.266C52.206,95.696,57.359,103.202,57.359,103.202z M40.775,83.328
                    c-3.347-1.45-7.792-5.02-10.822-8.052c-4.097-4.097-6.317-7.587-7.169-9.759c1.439-4.905,6.967-21.849,17.584-33.24
                    c12.804-2.174,26.217,0.163,32.055,1.45c1.286,5.836,3.626,19.252,1.45,32.055C62.552,76.343,45.853,81.835,40.775,83.328z"/>
        <circle fill="#f1606e" cx="52.002" cy="54.15" r="8.769"/>
    </g>
</svg>