<svg xmlns="http://www.w3.org/2000/svg" width="697px" height="450px">
    <rect width="100%" height="100%" style="fill:rgb(230, 230, 230);"/>
    <g transform="scale(0.04, 0.04) translate(8150, 5200)" style="fill:rgb(220, 220, 220);">
        <path d="M86.101309 537.884579A433.948324 433.948324 0 0 1 85.33331 512.000142C85.33331 276.36643 276.366145 85.333594 511.999858 85.333594a425.813215 425.813215 0 0 1 339.427461 168.10662l67.839981-51.768874A511.146525 511.146525 0 0 0 511.999858 0.000284C229.233714 0.000284 0 229.233999 0 512.000142c0 10.353775 0.284444 20.70755 0.910222 31.004436l85.191087-5.119999z m851.797097-51.768874c0.512 8.59022 0.768 17.208884 0.768 25.884437 0 235.633712-191.032836 426.666548-426.666548 426.666548a425.813215 425.813215 0 0 1-339.427461-168.10662l-67.839982 51.768875A511.146525 511.146525 0 0 0 511.999858 1024c282.766144 0 511.999858-229.233714 511.999858-511.999858 0-10.353775-0.284444-20.70755-0.910222-31.004436l-85.191088 5.119999z"/>
        <path d="M686.990031 200.13534v85.33331h252.131486V33.337164h-85.33331v166.798176zM170.211508 823.864944h166.798176v-85.333309H84.878199v252.131485h85.333309z"/>
    </g>
</svg>